<?xml version="1.0" encoding="UTF-8"?>
<svg width="33px" height="33px" viewBox="0 0 33 33" version="1.1" xmlns="http://www.w3.org/2000/svg" xmlns:xlink="http://www.w3.org/1999/xlink">
    <!-- Generator: Sketch 51.1 (57501) - http://www.bohemiancoding.com/sketch -->
    <title>Shape</title>
    <desc>Created with Sketch.</desc>
    <defs></defs>
    <g id="Symbols" stroke="none" stroke-width="1" fill="none" fill-rule="evenodd">
        <g id="Footer/condensed_blue" transform="translate(-296.000000, -310.000000)" fill="#FFFFFF" fill-rule="nonzero">
            <g id="Group-4" transform="translate(248.000000, 310.000000)">
                <path d="M64.5,0 C55.3612,0 48,7.3612 48,16.5 C48,25.6388 55.3612,33 64.5,33 C73.6388,33 81,25.6388 81,16.5 C81,7.3612 73.6388,0 64.5,0 Z M72.6235,12.3112 C72.6235,12.4377 72.6235,12.6918 72.6235,12.8194 C72.6235,18.4041 68.4347,24.75 60.6929,24.75 C58.2817,24.75 56.1235,23.9888 54.2194,22.8459 C54.6,22.8459 54.8541,22.8459 55.2347,22.8459 C57.1388,22.8459 59.0429,22.2112 60.4388,21.0694 C58.6623,21.0694 57.0123,19.8 56.5041,18.15 C56.7582,18.15 57.0112,18.2765 57.2653,18.2765 C57.6459,18.2765 58.0265,18.2765 58.4082,18.15 C56.5041,17.7694 54.9817,16.1194 54.9817,14.0888 C55.4899,14.3429 56.2511,14.597 56.8858,14.597 C55.744,13.8358 54.9817,12.5664 54.9817,11.0429 C54.9817,10.2817 55.2358,9.5194 55.4899,8.8847 C57.5205,11.4235 60.694,13.0735 64.1205,13.3265 C63.994,13.0724 63.994,12.6918 63.994,12.3112 C63.994,10.0265 65.8981,8.1224 68.1828,8.1224 C69.4522,8.1224 70.4675,8.6306 71.2287,9.3918 C72.244,9.2653 73.1328,8.8836 73.894,8.3765 C73.6399,9.3918 72.8787,10.153 71.9899,10.6612 C72.8787,10.5347 73.6399,10.2806 74.4011,10.0265 C74.1459,11.0418 73.5112,11.6765 72.6235,12.3112 Z" id="Shape" style="fill: currentColor;"></path>
            </g>
        </g>
    </g>
</svg>
