<?xml version="1.0" encoding="UTF-8"?>
<svg width="33px" height="33px" viewBox="0 0 33 33" version="1.1" xmlns="http://www.w3.org/2000/svg" xmlns:xlink="http://www.w3.org/1999/xlink">
    <!-- Generator: Sketch 51.1 (57501) - http://www.bohemiancoding.com/sketch -->
    <title>Combined Shape</title>
    <desc>Created with Sketch.</desc>
    <defs></defs>
    <g id="Symbols" stroke="none" stroke-width="1" fill="none" fill-rule="evenodd">
        <g id="Footer/condensed_blue" transform="translate(-345.000000, -310.000000)" fill="#FFFFFF" fill-rule="nonzero">
            <g id="Group-4" transform="translate(248.000000, 310.000000)">
                <path d="M113.5,0 C122.6388,0 130,7.3612 130,16.5 C130,25.6388 122.6388,33 113.5,33 C104.3612,33 97,25.6388 97,16.5 C97,7.3612 104.3612,0 113.5,0 Z M119.193824,7.21875 L107.806176,7.21875 C105.828562,7.21875 104.21875,8.8274709 104.21875,10.8061758 L104.21875,22.1938242 C104.21875,24.1725291 105.828562,25.78125 107.806176,25.78125 L119.193824,25.78125 C121.171438,25.78125 122.78125,24.1725291 122.78125,22.1938242 L122.78125,10.8061758 C122.78125,8.8274709 121.171438,7.21875 119.193824,7.21875 Z M120.315404,9.28338952 L120.71875,9.28125 L120.71875,12.3653721 L117.635727,12.375 L117.625,9.29087785 L120.315404,9.28338952 Z M110.991205,14.6960446 C111.553423,13.9167937 112.467028,13.40625 113.499483,13.40625 C114.531939,13.40625 115.445543,13.9167937 116.007762,14.6960446 C116.37465,15.2045213 116.59375,15.8266818 116.59375,16.5005167 C116.59375,18.205774 115.205774,19.59375 113.499483,19.59375 C111.794226,19.59375 110.40625,18.205774 110.40625,16.5005167 C110.40625,15.8266818 110.62535,15.2045213 110.991205,14.6960446 Z M120.71875,21.9581964 C120.71875,22.9292011 119.948061,23.71875 119.000251,23.71875 L107.999749,23.71875 C107.051939,23.71875 106.28125,22.9292011 106.28125,21.9581964 L106.28125,14.4375 L108.959156,14.4375 C108.727212,15.0207509 108.597534,15.6569264 108.597534,16.3233446 C108.597534,19.0927063 110.796791,21.346863 113.5,21.346863 C116.204264,21.346863 118.403521,19.0927063 118.403521,16.3233446 C118.403521,15.6569264 118.271734,15.0207509 118.041898,14.4375 L120.71875,14.4375 L120.71875,21.9581964 Z" id="Combined-Shape" style="fill: currentColor;"></path>
            </g>
        </g>
    </g>
</svg>
