<svg xmlns="http://www.w3.org/2000/svg" xmlns:xlink="http://www.w3.org/1999/xlink" width="137" height="43" viewBox="0 0 137 43">
    <defs>
        <path id="a" d="M.082.382h6.169V7.2H.082z"/>
        <path id="c" d="M.323.382h6.895V7.2H.323z"/>
        <path id="e" d="M.082.048h19.87v27.25H.082z"/>
    </defs>
    <g fill="none" fill-rule="evenodd">
        <g transform="translate(46.8 35.552)">
            <mask id="b" fill="#fff">
                <use xlink:href="#a"/>
            </mask>
            <path fill="#434244" d="M.082 3.81v-.02c0-1.845 1.413-3.408 3.4-3.408 1.149 0 1.855.32 2.534.894l-.735.876c-.509-.433-1.008-.706-1.846-.706-1.215 0-2.137 1.064-2.137 2.326v.019c0 1.356.894 2.354 2.24 2.354.622 0 1.187-.197 1.593-.499V4.413H3.445V3.405H6.25v2.768A4.199 4.199 0 0 1 3.5 7.2C1.439 7.2.082 5.731.082 3.81" mask="url(#b)"/>
        </g>
        <path fill="#434244" d="M55.26 36.047h1.159v5.537h3.466v1.055H55.26z"/>
        <g transform="translate(60.8 35.552)">
            <mask id="d" fill="#fff">
                <use xlink:href="#c"/>
            </mask>
            <path fill="#434244" d="M6.003 3.81v-.02c0-1.28-.932-2.344-2.242-2.344-1.309 0-2.222 1.045-2.222 2.326v.019c0 1.28.932 2.345 2.24 2.345 1.31 0 2.224-1.046 2.224-2.326m-5.68 0v-.02C.323 1.936 1.755.383 3.78.383s3.438 1.535 3.438 3.39v.019c0 1.855-1.432 3.41-3.457 3.41C1.737 7.2.323 5.664.323 3.81" mask="url(#d)"/>
        </g>
        <path fill="#434244" d="M73.183 41.613c.791 0 1.271-.311 1.271-.905v-.019c0-.555-.443-.885-1.356-.885h-1.836v1.809h1.921zm-.34-2.788c.744 0 1.244-.292 1.244-.895v-.019c0-.518-.414-.838-1.159-.838h-1.666v1.752h1.581zm-2.72-2.778h2.956c.753 0 1.347.207 1.724.583.291.292.442.65.442 1.093v.019c0 .791-.452 1.215-.941 1.469.772.264 1.308.706 1.308 1.601v.019c0 1.177-.97 1.808-2.439 1.808h-3.05v-6.592zM81.617 40.02l-1.14-2.636-1.13 2.637h2.27zM79.96 36h1.074l2.9 6.64H82.71l-.669-1.593h-3.118l-.677 1.592h-1.187l2.9-6.64zM85.765 36.047h1.159v5.537h3.466v1.055h-4.625zM95.828 36.047h1.158v2.74h3.146v-2.74h1.158v6.592h-1.158v-2.778h-3.146v2.778h-1.158zM103.688 36.047h4.887v1.036h-3.729v1.714h3.306v1.036h-3.306v1.77h3.777v1.036h-4.935zM114.693 40.02l-1.14-2.636-1.13 2.637h2.27zM113.035 36h1.074l2.9 6.64h-1.223l-.67-1.593H112l-.678 1.592h-1.187l2.9-6.64zM118.842 36.047H120v5.537h3.466v1.055h-4.624zM126.052 37.12h-2.09v-1.074h5.349v1.074h-2.09v5.52h-1.169zM131.237 36.047h1.158v2.74h3.146v-2.74h1.158v6.592h-1.158v-2.778h-3.146v2.778h-1.158z"/>
        <g transform="translate(46.8 .352)">
            <mask id="f" fill="#fff">
                <use xlink:href="#e"/>
            </mask>
            <path fill="#434244" d="M11.323 12.235c-5.828-1.25-7.191-2.65-7.191-5.148v-.075c0-2.385 2.195-4.277 5.64-4.277 2.725 0 5.185.87 7.645 2.876l1.741-2.308C16.47 1.145 13.708.048 9.848.048c-5.034 0-8.706 3.065-8.706 7.229v.076c0 4.352 2.8 6.32 8.894 7.644 5.564 1.174 6.889 2.574 6.889 5.034v.076c0 2.612-2.347 4.504-5.905 4.504-3.671 0-6.32-1.249-9.083-3.747L.082 23.059c3.18 2.84 6.624 4.24 10.825 4.24 5.26 0 9.045-2.953 9.045-7.494v-.076c0-4.05-2.724-6.207-8.629-7.494" mask="url(#f)"/>
        </g>
        <path fill="#434244" d="M74.096 16.334c.416-3.785 2.99-6.586 6.359-6.586 3.86 0 5.904 3.028 6.244 6.586H74.096zm6.434-9.046c-5.412 0-9.386 4.542-9.386 10.22 0 6.093 4.39 10.218 9.765 10.218 3.709 0 6.093-1.476 8.062-3.671l-1.817-1.627c-1.59 1.665-3.483 2.762-6.17 2.762-3.444 0-6.472-2.384-6.888-6.51h15.518c.038-.454.038-.756.038-1.021 0-5.753-3.33-10.37-9.122-10.37zM96.996 16.334c.416-3.785 2.99-6.586 6.358-6.586 3.86 0 5.904 3.028 6.245 6.586H96.996zm6.434-9.046c-5.412 0-9.387 4.542-9.387 10.22 0 6.093 4.39 10.218 9.765 10.218 3.71 0 6.094-1.476 8.062-3.671l-1.817-1.627c-1.59 1.665-3.482 2.762-6.17 2.762-3.443 0-6.471-2.384-6.887-6.51h15.517c.038-.454.038-.756.038-1.021 0-5.753-3.33-10.37-9.121-10.37zM133.898 17.507c0 4.504-3.444 7.57-7.077 7.57-3.71 0-6.889-2.952-6.889-7.57v-.076c0-4.73 3.104-7.532 6.889-7.532 3.633 0 7.077 3.028 7.077 7.532v.076zM133.785.403V11.45c-1.514-2.195-3.861-4.163-7.494-4.163-4.694 0-9.349 3.785-9.349 10.181v.076c0 6.434 4.655 10.144 9.349 10.144 3.595 0 5.904-2.006 7.494-4.353v3.936h2.914V.402h-2.914z"/>
        <path fill="#C01822" d="M16.421 9.958c-.435 1.048-.36 2.642.295 4.232.655 1.59 1.727 2.773 2.774 3.21.435-1.048.361-2.642-.294-4.232-.656-1.59-1.727-2.773-2.775-3.21M25.815 32.67c.435-1.048.361-2.642-.294-4.232-.656-1.59-1.727-2.773-2.775-3.21-.435 1.049-.36 2.642.295 4.233.655 1.59 1.727 2.772 2.774 3.21"/>
        <path fill="#C01822" d="M16.421 9.958c-.435 1.048-.36 2.642.295 4.232.655 1.59 1.727 2.773 2.774 3.21.435-1.048.361-2.642-.294-4.232-.656-1.59-1.727-2.773-2.775-3.21M25.815 32.67c.435-1.048.361-2.642-.294-4.232-.656-1.59-1.727-2.773-2.775-3.21-.435 1.049-.36 2.642.295 4.233.655 1.59 1.727 2.772 2.774 3.21M32.474 16.617c-1.048-.434-2.642-.36-4.232.295-1.59.655-2.773 1.727-3.21 2.774 1.048.435 2.642.361 4.232-.294 1.59-.656 2.773-1.727 3.21-2.775M9.762 26.011c1.048.435 2.642.361 4.232-.294 1.59-.656 2.773-1.727 3.21-2.775-1.048-.435-2.642-.36-4.232.295-1.59.656-2.773 1.727-3.21 2.774M25.827 9.963c-1.049.434-2.124 1.613-2.784 3.2-.661 1.589-.74 3.183-.309 4.232 1.05-.433 2.124-1.613 2.785-3.2.66-1.588.74-3.182.308-4.232M16.41 32.666v-.001c1.048-.433 2.123-1.612 2.784-3.2.66-1.588.74-3.182.308-4.232-1.049.434-2.124 1.613-2.785 3.201-.66 1.588-.74 3.182-.308 4.232"/>
        <path fill="#C01822" d="M25.827 9.963c-1.049.434-2.124 1.613-2.784 3.2-.661 1.589-.74 3.183-.309 4.232 1.05-.433 2.124-1.613 2.785-3.2.66-1.588.74-3.182.308-4.232M16.41 32.666v-.001c1.048-.433 2.123-1.612 2.784-3.2.66-1.588.74-3.182.308-4.232-1.049.434-2.124 1.613-2.785 3.201-.66 1.588-.74 3.182-.308 4.232M32.47 26.023c-.434-1.049-1.614-2.124-3.201-2.784-1.588-.661-3.182-.74-4.232-.308.434 1.049 1.613 2.123 3.201 2.784 1.588.661 3.182.74 4.232.308M9.767 16.605c.433 1.05 1.613 2.124 3.2 2.785 1.589.66 3.183.74 4.233.308h-.001c-.433-1.049-1.613-2.124-3.2-2.784-1.589-.661-3.182-.74-4.232-.309M16.965.402v.001c-.631.943-.87 2.52-.537 4.208.333 1.687 1.153 3.057 2.095 3.69.631-.944.87-2.522.537-4.209-.333-1.687-1.153-3.056-2.095-3.69M25.374 42.742v-.001c.631-.943.87-2.52.537-4.208-.333-1.687-1.153-3.056-2.095-3.69v.001c-.631.943-.87 2.52-.537 4.208.333 1.687 1.153 3.056 2.095 3.69M42.339 17.368c-.943-.631-2.521-.87-4.209-.537-1.687.333-3.056 1.153-3.69 2.095h.002-.001c.943.63 2.521.87 4.208.537 1.688-.333 3.057-1.153 3.69-2.095M0 25.776c.943.631 2.521.87 4.208.537 1.688-.333 3.057-1.152 3.69-2.095-.943-.63-2.521-.87-4.208-.537-1.688.333-3.057 1.153-3.69 2.095M33.166 3.63c-1.114.22-2.398 1.168-3.356 2.596-.958 1.429-1.346 2.977-1.128 4.09 1.114-.22 2.398-1.167 3.356-2.596.958-1.428 1.346-2.976 1.128-4.09M9.173 39.514c1.114-.221 2.398-1.168 3.356-2.596.957-1.429 1.346-2.977 1.127-4.09-1.113.22-2.397 1.167-3.355 2.596-.958 1.429-1.346 2.976-1.128 4.09M39.111 33.568c-.22-1.113-1.167-2.398-2.596-3.356-1.428-.957-2.976-1.346-4.09-1.127.22 1.113 1.168 2.397 2.596 3.355 1.429.958 2.977 1.347 4.09 1.128M3.228 9.576c.22 1.113 1.167 2.398 2.596 3.356 1.428.957 2.976 1.346 4.09 1.127-.22-1.113-1.168-2.398-2.596-3.355-1.429-.958-2.976-1.346-4.09-1.128M9.184 3.623c-.222 1.113.161 2.662 1.114 4.094.954 1.431 2.235 2.382 3.348 2.606.222-1.112-.162-2.662-1.115-4.093-.953-1.432-2.234-2.383-3.347-2.607M33.155 39.521c.222-1.113-.161-2.662-1.115-4.093-.953-1.432-2.234-2.383-3.347-2.608v.001c-.222 1.113.161 2.661 1.115 4.093.953 1.432 2.234 2.382 3.347 2.607M39.119 9.587h-.001c-1.113-.223-2.661.16-4.093 1.114-1.432.953-2.383 2.235-2.607 3.347 1.113.222 2.662-.161 4.093-1.114 1.432-.953 2.383-2.235 2.608-3.347M3.22 33.558h.001c1.113.222 2.661-.162 4.093-1.115s2.383-2.235 2.607-3.347c-1.113-.222-2.662.161-4.093 1.114-1.432.954-2.383 2.235-2.608 3.348M25.386.405c-.944.63-1.768 1.996-2.106 3.683-.338 1.686-.105 3.265.523 4.21.945-.63 1.769-1.996 2.107-3.683.338-1.686.104-3.264-.524-4.21M16.953 42.739c.944-.63 1.768-1.997 2.106-3.683.338-1.686.105-3.264-.523-4.21-.945.63-1.769 1.996-2.107 3.683-.338 1.686-.104 3.265.524 4.21M42.336 25.789c-.63-.944-1.996-1.768-3.682-2.107-1.686-.338-3.265-.104-4.21.524.63.944 1.996 1.768 3.682 2.106 1.686.338 3.265.105 4.21-.523M.003 17.355c.63.944 1.996 1.768 3.682 2.107 1.686.338 3.265.104 4.21-.524-.63-.944-1.996-1.768-3.682-2.106-1.686-.339-3.265-.105-4.21.523"/>
        <path fill="#C01822" d="M16.965.402v.001c-.631.943-.87 2.52-.537 4.208.333 1.687 1.153 3.057 2.095 3.69.631-.944.87-2.522.537-4.209-.333-1.687-1.153-3.056-2.095-3.69M25.374 42.742v-.001c.631-.943.87-2.52.537-4.208-.333-1.687-1.153-3.056-2.095-3.69v.001c-.631.943-.87 2.52-.537 4.208.333 1.687 1.153 3.056 2.095 3.69M21.03 24.65c.614-.613 1.028-1.76 1.03-3.076.002-1.316-.408-2.465-1.02-3.08-.615.613-1.03 1.76-1.031 3.076-.003 1.316.408 2.465 1.02 3.08M42.339 17.368c-.943-.631-2.521-.87-4.209-.537-1.687.333-3.056 1.153-3.69 2.095h.002-.001c.943.63 2.521.87 4.208.537 1.688-.333 3.057-1.153 3.69-2.095"/>
        <path fill="#C01822" d="M24.113 21.577c-.614-.615-1.762-1.029-3.077-1.03-1.315-.003-2.465.408-3.08 1.02.613.614 1.761 1.029 3.077 1.03 1.315.003 2.464-.408 3.08-1.02M0 25.776c.943.631 2.521.87 4.208.537 1.688-.333 3.057-1.152 3.69-2.095-.943-.63-2.521-.87-4.208-.537-1.688.333-3.057 1.153-3.69 2.095M33.166 3.63c-1.114.22-2.398 1.168-3.356 2.596-.958 1.429-1.346 2.977-1.128 4.09 1.114-.22 2.398-1.167 3.356-2.596.958-1.428 1.346-2.976 1.128-4.09M9.173 39.514c1.114-.221 2.398-1.168 3.356-2.596.957-1.429 1.346-2.977 1.127-4.09-1.113.22-2.397 1.167-3.355 2.596-.958 1.429-1.346 2.976-1.128 4.09M39.111 33.568c-.22-1.113-1.167-2.398-2.596-3.356-1.428-.957-2.976-1.346-4.09-1.127.22 1.113 1.168 2.397 2.596 3.355 1.429.958 2.977 1.347 4.09 1.128M3.228 9.576c.22 1.113 1.167 2.398 2.596 3.356 1.428.957 2.976 1.346 4.09 1.127-.22-1.113-1.168-2.398-2.596-3.355-1.429-.958-2.976-1.346-4.09-1.128M9.184 3.623c-.222 1.113.161 2.662 1.114 4.094.954 1.431 2.235 2.382 3.348 2.606.222-1.112-.162-2.662-1.115-4.093-.953-1.432-2.234-2.383-3.347-2.607M33.155 39.521c.222-1.113-.161-2.662-1.115-4.093-.953-1.432-2.234-2.383-3.347-2.608v.001c-.222 1.113.161 2.661 1.115 4.093.953 1.432 2.234 2.382 3.347 2.607M39.119 9.587h-.001c-1.113-.223-2.661.16-4.093 1.114-1.432.953-2.383 2.235-2.607 3.347 1.113.222 2.662-.161 4.093-1.114 1.432-.953 2.383-2.235 2.608-3.347M3.22 33.558h.001c1.113.222 2.661-.162 4.093-1.115s2.383-2.235 2.607-3.347c-1.113-.222-2.662.161-4.093 1.114-1.432.954-2.383 2.235-2.608 3.348M25.386.405c-.944.63-1.768 1.996-2.106 3.683-.338 1.686-.105 3.265.523 4.21.945-.63 1.769-1.996 2.107-3.683.338-1.686.104-3.264-.524-4.21M16.953 42.739c.944-.63 1.768-1.997 2.106-3.683.338-1.686.105-3.264-.523-4.21-.945.63-1.769 1.996-2.107 3.683-.338 1.686-.104 3.265.524 4.21M42.336 25.789c-.63-.944-1.996-1.768-3.682-2.107-1.686-.338-3.265-.104-4.21.524.63.944 1.996 1.768 3.682 2.106 1.686.338 3.265.105 4.21-.523M.003 17.355c.63.944 1.996 1.768 3.682 2.107 1.686.338 3.265.104 4.21-.524-.63-.944-1.996-1.768-3.682-2.106-1.686-.339-3.265-.105-4.21.523"/>
    </g>
</svg>
